<svg xmlns="http://www.w3.org/2000/svg" viewBox="0 0 100 100" width="100" height="100">
  <rect x="20" y="20" width="60" height="65" rx="2" fill="#8D6E63" stroke="#5D4037" stroke-width="2"/>
  <rect x="22" y="22" width="56" height="18" fill="#A1887F"/>
  <rect x="22" y="43" width="56" height="18" fill="#A1887F"/>
  <rect x="22" y="64" width="56" height="18" fill="#A1887F"/>
  <rect x="25" y="25" width="8" height="13" rx="1" fill="#E53935" stroke="#C62828" stroke-width="1"/>
  <rect x="35" y="25" width="8" height="13" rx="1" fill="#43A047" stroke="#2E7D32" stroke-width="1"/>
  <rect x="45" y="25" width="8" height="13" rx="1" fill="#1E88E5" stroke="#1565C0" stroke-width="1"/>
  <rect x="55" y="25" width="8" height="13" rx="1" fill="#FB8C00" stroke="#E65100" stroke-width="1"/>
  <rect x="65" y="25" width="8" height="13" rx="1" fill="#8E24AA" stroke="#6A1B9A" stroke-width="1"/>
  <rect x="25" y="46" width="8" height="13" rx="1" fill="#00ACC1" stroke="#00838F" stroke-width="1"/>
  <rect x="35" y="46" width="8" height="13" rx="1" fill="#D81B60" stroke="#AD1457" stroke-width="1"/>
  <rect x="45" y="46" width="8" height="13" rx="1" fill="#6D4C41" stroke="#4E342E" stroke-width="1"/>
  <rect x="55" y="46" width="8" height="13" rx="1" fill="#5E35B1" stroke="#4527A0" stroke-width="1"/>
  <rect x="65" y="46" width="8" height="13" rx="1" fill="#F4511E" stroke="#D84315" stroke-width="1"/>
  <rect x="25" y="67" width="8" height="13" rx="1" fill="#7CB342" stroke="#558B2F" stroke-width="1"/>
  <rect x="35" y="67" width="8" height="13" rx="1" fill="#FFB300" stroke="#FF8F00" stroke-width="1"/>
  <rect x="45" y="67" width="8" height="13" rx="1" fill="#00897B" stroke="#00695C" stroke-width="1"/>
  <rect x="55" y="67" width="8" height="13" rx="1" fill="#3949AB" stroke="#283593" stroke-width="1"/>
  <rect x="65" y="67" width="8" height="13" rx="1" fill="#C0CA33" stroke="#9E9D24" stroke-width="1"/>
</svg>