<svg xmlns="http://www.w3.org/2000/svg" viewBox="0 0 100 100" width="100" height="100">
  <defs>
    <linearGradient id="potGrad" x1="0%" y1="0%" x2="0%" y2="100%">
      <stop offset="0%" style="stop-color:#D84315;stop-opacity:1" />
      <stop offset="100%" style="stop-color:#BF360C;stop-opacity:1" />
    </linearGradient>
  </defs>
  <path d="M35 70 L30 90 L70 90 L65 70 Z" fill="url(#potGrad)" stroke="#8D4004" stroke-width="2"/>
  <ellipse cx="50" cy="70" rx="18" ry="5" fill="#6D4C41" stroke="#4E342E" stroke-width="1"/>
  <path d="M50 70 Q40 50 42 35 Q43 25 48 22" stroke="#388E3C" stroke-width="3" fill="none" stroke-linecap="round"/>
  <ellipse cx="42" cy="35" rx="12" ry="18" fill="#66BB6A" stroke="#2E7D32" stroke-width="2" transform="rotate(-20 42 35)"/>
  <path d="M50 65 Q60 50 58 38 Q57 28 52 25" stroke="#388E3C" stroke-width="3" fill="none" stroke-linecap="round"/>
  <ellipse cx="58" cy="38" rx="12" ry="16" fill="#81C784" stroke="#388E3C" stroke-width="2" transform="rotate(15 58 38)"/>
  <path d="M50 60 Q48 45 50 32" stroke="#4CAF50" stroke-width="3" fill="none" stroke-linecap="round"/>
  <ellipse cx="50" cy="32" rx="10" ry="15" fill="#A5D6A7" stroke="#4CAF50" stroke-width="2"/>
</svg>